<?xml version="1.0" encoding="UTF-8" standalone="no"?>
<!DOCTYPE svg PUBLIC "-//W3C//DTD SVG 1.1//EN" "http://www.w3.org/Graphics/SVG/1.1/DTD/svg11.dtd">
<svg width="100%" height="100%" viewBox="0 0 1024 1024" version="1.1" xmlns="http://www.w3.org/2000/svg" xmlns:xlink="http://www.w3.org/1999/xlink" xml:space="preserve" xmlns:serif="http://www.serif.com/" style="fill-rule:evenodd;clip-rule:evenodd;stroke-linejoin:round;stroke-miterlimit:2;">
    <g transform="matrix(2.59241,0,0,2.59241,254.508,0.268314)">
        <path d="M180.957,297.886C180.925,329.056 173.201,352.991 157.785,369.69C142.338,386.425 119.902,394.793 90.478,394.793C61.055,394.793 38.619,386.425 23.171,369.69C7.724,352.956 0,328.957 0,297.694L0,3.087L60.687,3.087L60.687,302.107C60.687,315.348 63.353,324.911 68.686,330.796C74.019,336.681 81.651,339.623 91.582,339.623C99.115,339.623 105.325,337.93 110.213,334.544L103.022,321.454C99.483,313.535 102.345,301.381 109.147,301.259L128.212,299.706L126.852,43.384C134.242,18.392 140.86,4.778 151.563,0L185.928,54.332L186.78,84.49L173.308,108.188L195.358,140.921L195.358,164.556L174.848,196.513L198.651,231.465L181.653,258.318L181.041,297.819C181.041,297.819 181.012,297.842 180.957,297.886Z" style="fill:rgb(255,170,0);"/>
    </g>
</svg>
